<?xml version="1.0" encoding="iso-8859-1"?>
<!-- Generator: Adobe Illustrator 19.0.0, SVG Export Plug-In . SVG Version: 6.00 Build 0)  -->
<svg version="1.1" id="Capa_1" xmlns="http://www.w3.org/2000/svg" xmlns:xlink="http://www.w3.org/1999/xlink" x="0px" y="0px"
	 viewBox="0 0 512 512" style="enable-background:new 0 0 512 512;" xml:space="preserve">
<circle style="fill:#005C83;" cx="256" cy="256" r="256"/>
<path style="fill:#00263F;" d="M512,256c0-4.476-0.117-8.924-0.344-13.344L349.5,80.5L162.501,436.999l74.285,74.285
	C243.13,511.755,249.536,512,256,512C397.385,512,512,397.385,512,256z"/>
<g>
	<polygon style="fill:#FFFFFF;" points="349.5,437 330.801,421 312.106,437 293.408,421 274.71,437 256.01,421 237.315,437 
		218.613,421 199.91,437 181.205,421 162.5,437 162.501,437 162.5,80.5 181.199,96.5 199.894,80.5 218.592,96.5 237.29,80.5 
		255.99,96.5 274.685,80.5 293.387,96.5 312.09,80.5 330.795,96.5 349.5,80.5 349.501,437 	"/>
	<polygon style="fill:#FFFFFF;" points="162.501,437 162.501,436.999 162.5,437 	"/>
</g>
<polygon style="fill:#E0E0E0;" points="349.5,80.5 330.795,96.5 312.09,80.5 293.387,96.5 274.686,80.5 255.99,96.5 256,96.284 
	256,421.232 256.01,421 274.71,437 293.408,421 312.105,437 330.801,421 349.5,437 349.5,437 "/>
<polygon style="fill:#FFFFFF;" points="162.501,437 162.501,436.999 162.5,437 "/>
<path style="fill:#FFDC00;" d="M162.5,292.326c0,79.934,0,144.673,0,144.673L181.205,421l18.705,16l18.703-16l18.702,16l18.695-16
	l18.7,16l18.698-16l18.698,16l18.696-16l18.699,16l0,0c0,0,0-64.74,0-144.674H162.5z"/>
<path style="fill:#FFC000;" d="M256.01,421l18.7,16l18.698-16l18.698,16l18.696-16l18.699,16l0,0c0,0,0-64.74,0-144.674H256.01V421z
	"/>
<rect x="190.75" y="148" style="fill:#999999;" width="130.5" height="20"/>
<rect x="256" y="148" style="fill:#808080;" width="65.25" height="20"/>
<rect x="190.75" y="198.37" style="fill:#999999;" width="130.5" height="20"/>
<rect x="256" y="198.37" style="fill:#808080;" width="65.25" height="20"/>
<rect x="190.75" y="248.75" style="fill:#999999;" width="130.5" height="20"/>
<rect x="256" y="248.75" style="fill:#808080;" width="65.25" height="20"/>
<path style="fill:#F1333F;" d="M284.649,363.669c-1.727-2.702-4.094-4.949-7.037-6.682c-2.564-1.508-5.569-2.736-8.932-3.651
	c-1.48-0.401-3.022-0.801-4.618-1.195v-19.148c0.606,0.149,1.177,0.324,1.713,0.525c1.874,0.701,3.797,2.121,5.716,4.222
	l4.527,4.957l9.688-10.435l-3.925-4.207c-3.222-3.453-6.857-5.984-10.805-7.523c-2.119-0.826-4.431-1.435-6.914-1.823v-9.775h-14.22
	v9.989c-5.158,0.91-9.562,2.766-13.14,5.544c-5.357,4.157-8.188,10.287-8.188,17.728c0,3.845,0.766,7.157,2.273,9.839
	c1.503,2.681,3.661,4.901,6.412,6.597c2.332,1.44,5.122,2.623,8.29,3.518c1.364,0.385,2.819,0.764,4.354,1.134v19.313
	c-1.23-0.294-2.406-0.666-3.524-1.115c-2.709-1.087-5.35-3.056-7.85-5.85l-4.057-4.536L223.5,380.55l4.514,4.693
	c3.673,3.818,7.747,6.775,12.107,8.79c2.883,1.334,6.138,2.271,9.721,2.802v8.666h14.22v-8.534c1.73-0.217,3.387-0.53,4.96-0.936
	c3.577-0.923,6.727-2.323,9.362-4.159c2.847-1.983,5.087-4.496,6.658-7.465c1.585-2.992,2.389-6.431,2.389-10.221
	C287.431,370.095,286.495,366.557,284.649,363.669z M264.062,366.558c0.273,0.075,0.542,0.149,0.808,0.225
	c2.09,0.59,3.885,1.327,5.324,2.185c1.064,0.635,1.838,1.36,2.363,2.207c0.428,0.694,0.654,1.798,0.654,3.197
	c0,3.795-1.533,5.285-3.031,6.24c-1.646,1.05-3.693,1.806-6.119,2.263L264.062,366.558L264.062,366.558z M245.324,335.382
	c0.799-0.72,2.173-1.54,4.519-2.139v15.426c-0.26-0.073-0.515-0.146-0.764-0.219c-1.867-0.542-3.376-1.174-4.487-1.879
	c-0.663-0.42-1.112-0.875-1.377-1.394c-0.146-0.285-0.483-1.153-0.483-3.077C242.733,338.168,244.211,336.383,245.324,335.382z"/>
<path style="fill:#AE283F;" d="M284.649,363.669c-1.727-2.702-4.094-4.949-7.037-6.682c-2.564-1.508-5.569-2.736-8.932-3.651
	c-1.48-0.401-3.022-0.801-4.618-1.195v-19.148c0.606,0.149,1.177,0.325,1.713,0.525c1.874,0.701,3.797,2.121,5.716,4.222
	l4.527,4.957l9.688-10.435l-3.925-4.207c-3.222-3.453-6.857-5.984-10.805-7.523c-2.119-0.826-4.431-1.435-6.914-1.823v-9.774H256
	V405.5h8.062v-8.534c1.73-0.218,3.387-0.53,4.96-0.936c3.577-0.923,6.727-2.323,9.362-4.159c2.847-1.983,5.087-4.496,6.658-7.465
	c1.585-2.991,2.388-6.43,2.388-10.22C287.431,370.095,286.495,366.557,284.649,363.669z M270.181,380.612
	c-1.646,1.05-3.693,1.806-6.119,2.263v-16.317c0.273,0.075,0.542,0.149,0.808,0.225c2.09,0.59,3.885,1.327,5.324,2.185
	c1.064,0.635,1.838,1.36,2.363,2.207c0.428,0.694,0.654,1.799,0.654,3.197C273.212,378.167,271.679,379.657,270.181,380.612z"/>
<g>
</g>
<g>
</g>
<g>
</g>
<g>
</g>
<g>
</g>
<g>
</g>
<g>
</g>
<g>
</g>
<g>
</g>
<g>
</g>
<g>
</g>
<g>
</g>
<g>
</g>
<g>
</g>
<g>
</g>
</svg>
