<svg height="512pt" viewBox="0 0 512 512" width="512pt" xmlns="http://www.w3.org/2000/svg"><path d="m512 256c0 39.070312-8.757812 76.101562-24.410156 109.234375-8.503906 18.003906-19.058594 34.855469-31.34375 50.257813-12.082032 15.164062-25.851563 28.914062-41.023438 40.972656-39.96875 31.796875-89.664062 51.886718-143.914062 55.085937-5.058594.292969-10.167969.449219-15.308594.449219-11.828125 0-23.457031-.804688-34.859375-2.363281-35.160156-4.773438-68.050781-16.707031-97.164063-34.269531-11.023437-6.636719-21.492187-14.097657-31.347656-22.269532-56.589844-46.957031-92.628906-117.820312-92.628906-197.097656s36.039062-150.140625 92.628906-197.097656c27.796875-23.0625 60.542969-40.367188 96.414063-50.050782 21.347656-5.78125 43.792969-8.851562 66.957031-8.851562s45.609375 3.070312 66.957031 8.851562c25.378907 6.851563 49.195313 17.523438 70.800781 31.34375 1.160157.742188 2.3125 1.496094 3.460938 2.257813 4.511719 2.988281 8.921875 6.113281 13.226562 9.382813 14.996094 11.339843 28.683594 24.304687 40.847657 38.632812 1.671875 1.984375 3.332031 3.988281 4.953125 6.027344 12.285156 15.402344 22.828125 32.265625 31.34375 50.269531 15.652344 33.132813 24.410156 70.164063 24.410156 109.234375zm0 0" fill="#e5e1dc"/><path d="m487.589844 44.292969v320.941406c-40.988282 86.746094-129.285156 146.765625-231.589844 146.765625-62.109375 0-119.046875-22.109375-163.371094-58.902344v-408.804687c0-19.582031 15.875-35.441407 35.445313-35.441407h324.074219c19.570312 0 35.441406 15.859376 35.441406 35.441407zm0 0" fill="#512375"/><path d="m456.246094 44.292969v371.199219c-46.898438 58.816406-119.171875 96.507812-200.246094 96.507812-48.304688 0-93.476562-13.375-132.023438-36.632812v-431.074219c0-2.265625 1.839844-4.097657 4.097657-4.097657h324.074219c2.257812 0 4.097656 1.832032 4.097656 4.097657zm0 0" fill="#fecf32"/><path d="m251.226562 260.773438-93.886718 93.886718c-4.25 4.25-11.535156 1.242188-11.535156-4.785156v-31.621094c0-3.730468-3.019532-6.757812-6.761719-6.757812h-122.722657c-3.730468 0-6.75-3.019532-6.75-6.761719v-97.46875c0-3.730469 3.019532-6.761719 6.75-6.761719h122.722657c3.742187 0 6.761719-3.019531 6.761719-6.757812v-31.621094c0-6.015625 7.285156-9.035156 11.535156-4.785156l93.886718 93.886718c2.632813 2.632813 2.632813 6.914063 0 9.546876zm0 0" fill="#3fc37c"/><path d="m251.226562 260.773438-49.414062 49.414062v-108.375l49.414062 49.414062c2.632813 2.632813 2.632813 6.914063 0 9.546876zm0 0" fill="#17a388"/><path d="m456.246094 40.195312-4.953125 50.273438-36.070313 365.996094c-43.699218 34.761718-99.035156 55.535156-159.222656 55.535156-11.828125 0-23.457031-.804688-34.859375-2.363281v-422.429688l176.078125-44.753906 8.871094-2.257813zm0 0" fill="#512375"/><path d="m456.246094 40.195312v375.296876c-12.082032 15.164062-25.851563 28.914062-41.023438 40.972656-39.96875 31.796875-89.664062 51.886718-143.914062 55.085937v-424.34375l139.136718-35.371093zm0 0" fill="#663a91"/><path d="m349.664062 326.21875c0 11.835938-7.953124 21.816406-18.808593 24.878906-2.234375.636719-4.609375.980469-7.054688.980469-14.28125 0-25.859375-11.578125-25.859375-25.859375 0-14.285156 11.578125-25.863281 25.859375-25.863281 2.445313 0 4.820313.34375 7.054688.984375 10.855469 3.058594 18.808593 13.039062 18.808593 24.878906zm0 0" fill="#fdae2f"/><path d="m349.664062 326.21875c0 11.835938-7.953124 21.816406-18.808593 24.878906-10.855469-3.0625-18.808594-13.042968-18.808594-24.878906 0-11.839844 7.953125-21.820312 18.808594-24.878906 10.855469 3.058594 18.808593 13.039062 18.808593 24.878906zm0 0" fill="#fecf32"/></svg>