<?xml version="1.0" encoding="iso-8859-1"?>
<!-- Generator: Adobe Illustrator 19.0.0, SVG Export Plug-In . SVG Version: 6.00 Build 0)  -->
<svg version="1.1" id="Capa_1" xmlns="http://www.w3.org/2000/svg" xmlns:xlink="http://www.w3.org/1999/xlink" x="0px" y="0px"
	 viewBox="0 0 384 384" style="enable-background:new 0 0 384 384;" xml:space="preserve">
<circle style="fill:#45B39C;" cx="192" cy="192" r="192"/>
<path style="opacity:0.1;enable-background:new    ;" d="M269.88,81.99H114.12L82,101.429v15.72c0,4.08,1.56,7.8,4.12,10.56
	l-0.08,0.04l20.52,20.52v153.72l81.922,81.922C189.656,383.932,190.82,384,192,384c106.039,0,192-85.961,192-192
	c0-2.949-0.09-5.876-0.222-8.793L302,101.429L269.88,81.99z"/>
<path style="fill:#EBF0F3;" d="M270.563,129.03c-3.602,4.75-9.305,7.822-15.711,7.822c-6.406,0-12.11-3.072-15.715-7.822
	c-3.602,4.75-9.305,7.822-15.711,7.822c-6.406,0-12.109-3.072-15.715-7.822c-3.602,4.75-9.305,7.822-15.711,7.822
	c-6.406,0-12.11-3.072-15.715-7.822c-3.602,4.75-9.305,7.822-15.711,7.822c-6.406,0-12.109-3.072-15.715-7.822
	c-3.602,4.75-9.304,7.822-15.711,7.822s-12.109-3.072-15.711-7.822c-1.815,2.391-4.162,4.354-6.862,5.716V302h170.848V134.746
	C274.725,133.383,272.378,131.42,270.563,129.03z"/>
<path style="fill:#D5D6DB;" d="M106.576,113.426v21.321c2.7-1.363,5.048-3.326,6.862-5.716c3.602,4.75,9.304,7.822,15.711,7.822
	s12.109-3.072,15.711-7.822c3.606,4.75,9.309,7.822,15.715,7.822c6.406,0,12.11-3.072,15.711-7.822
	c3.605,4.75,9.308,7.822,15.715,7.822c6.406,0,12.109-3.072,15.711-7.822c3.606,4.75,9.309,7.822,15.715,7.822
	c6.406,0,12.11-3.072,15.711-7.822c3.605,4.75,9.308,7.822,15.715,7.822c6.406,0,12.109-3.072,15.711-7.822
	c1.814,2.39,4.162,4.353,6.861,5.716v-21.32H106.576z"/>
<path style="fill:#FCD462;" d="M141.172,144.695h-20.058c-0.744,0-1.349,0.604-1.349,1.349v8.93c0,0.745,0.605,1.349,1.349,1.349
	h20.058c0.745,0,1.349-0.604,1.349-1.349v-8.93C142.52,145.299,141.917,144.695,141.172,144.695z"/>
<path style="fill:#E56353;" d="M171.6,144.695h-20.058c-0.745,0-1.349,0.604-1.349,1.349v8.93c0,0.745,0.604,1.349,1.349,1.349
	H171.6c0.745,0,1.348-0.604,1.348-1.349v-8.93C172.949,145.299,172.346,144.695,171.6,144.695z"/>
<path style="fill:#44C4A1;" d="M202.028,144.695h-20.056c-0.745,0-1.35,0.604-1.35,1.349v8.93c0,0.745,0.604,1.349,1.35,1.349
	h20.056c0.746,0,1.35-0.604,1.35-1.349v-8.93C203.378,145.299,202.774,144.695,202.028,144.695z"/>
<path style="fill:#27A2DB;" d="M232.457,144.695H212.4c-0.745,0-1.35,0.604-1.35,1.349v8.93c0,0.745,0.605,1.349,1.35,1.349h20.057
	c0.745,0,1.35-0.604,1.35-1.349v-8.93C233.806,145.299,233.202,144.695,232.457,144.695z"/>
<g>
	<path style="fill:#64798A;" d="M262.886,144.695h-20.057c-0.745,0-1.35,0.604-1.35,1.349v8.93c0,0.745,0.604,1.349,1.35,1.349
		h20.057c0.745,0,1.35-0.604,1.35-1.349v-8.93C264.235,145.299,263.631,144.695,262.886,144.695z"/>
	<rect x="106.576" y="165.12" style="fill:#64798A;" width="170.848" height="50.58"/>
</g>
<g>
	<polygon style="fill:#EBF0F3;" points="118.887,194.426 114.883,190.422 118.887,186.419 120.539,188.07 118.187,190.422 
		120.539,192.774 	"/>
	<polygon style="fill:#EBF0F3;" points="265.113,194.426 269.117,190.422 265.113,186.419 263.461,188.07 265.813,190.422 
		263.461,192.774 	"/>
</g>
<rect x="117.72" y="220.56" style="fill:#FCD462;" width="43.86" height="36.28"/>
<rect x="170.08" y="220.56" style="fill:#44C4A1;" width="43.86" height="36.28"/>
<rect x="222.44" y="220.56" style="fill:#E56353;" width="43.86" height="36.28"/>
<rect x="117.72" y="251.916" style="fill:#F6C358;" width="43.86" height="4.932"/>
<rect x="170.08" y="251.916" style="fill:#3EA69B;" width="43.86" height="4.932"/>
<rect x="222.44" y="251.916" style="fill:#D15241;" width="43.86" height="4.932"/>
<g>
	<rect x="117.72" y="267.772" style="fill:#E1E6E9;" width="43.86" height="4.932"/>
	<rect x="170.08" y="267.772" style="fill:#E1E6E9;" width="43.86" height="4.932"/>
	<rect x="222.44" y="267.772" style="fill:#E1E6E9;" width="43.86" height="4.932"/>
	<rect x="117.72" y="282.24" style="fill:#E1E6E9;" width="19.86" height="4.932"/>
	<rect x="170.08" y="282.24" style="fill:#E1E6E9;" width="19.86" height="4.932"/>
	<rect x="222.44" y="282.24" style="fill:#E1E6E9;" width="19.86" height="4.932"/>
	<path style="fill:#E1E6E9;" d="M82.01,101.426v15.713c0,8.678,7.034,15.712,15.713,15.712c8.678,0,15.713-7.035,15.713-15.712
		v-15.713H82.01z"/>
</g>
<path style="fill:#D15241;" d="M113.436,101.426v15.713c0,8.678,7.034,15.712,15.712,15.712h0.001
	c8.678,0,15.712-7.035,15.712-15.712v-15.713H113.436z"/>
<path style="fill:#E1E6E9;" d="M144.861,101.426v15.713c0,8.678,7.035,15.712,15.713,15.712c8.679,0,15.713-7.035,15.713-15.712
	v-15.713H144.861z"/>
<path style="fill:#D15241;" d="M176.287,101.426v15.713c0,8.678,7.035,15.712,15.713,15.712c8.679,0,15.713-7.035,15.713-15.712
	v-15.713H176.287z"/>
<path style="fill:#E1E6E9;" d="M207.712,101.426v15.713c0,8.678,7.035,15.712,15.713,15.712c8.679,0,15.713-7.035,15.713-15.712
	v-15.713H207.712z"/>
<path style="fill:#D15241;" d="M239.138,101.426v15.713c0,8.678,7.035,15.712,15.713,15.712c8.678,0,15.713-7.035,15.713-15.712
	v-15.713H239.138z"/>
<path style="fill:#E1E6E9;" d="M270.564,101.426v15.713c0,8.678,7.035,15.712,15.713,15.712c8.678,0,15.713-7.035,15.713-15.712
	v-15.713H270.564z"/>
<polygon style="fill:#EBF0F3;" points="113.436,101.426 136.366,82 114.112,82 82.01,101.426 "/>
<polygon style="fill:#E56353;" points="144.861,101.426 158.619,82 136.366,82 113.436,101.426 "/>
<polygon style="fill:#EBF0F3;" points="176.287,101.426 180.873,82 158.619,82 144.861,101.426 "/>
<polygon style="fill:#E56353;" points="207.712,101.426 203.127,82 180.873,82 176.287,101.426 "/>
<polygon style="fill:#EBF0F3;" points="239.138,101.426 225.38,82 203.127,82 207.712,101.426 "/>
<polygon style="fill:#E56353;" points="270.564,101.426 247.634,82 225.38,82 239.138,101.426 "/>
<polygon style="fill:#EBF0F3;" points="301.99,101.426 269.888,82 247.634,82 270.564,101.426 "/>
<g>
</g>
<g>
</g>
<g>
</g>
<g>
</g>
<g>
</g>
<g>
</g>
<g>
</g>
<g>
</g>
<g>
</g>
<g>
</g>
<g>
</g>
<g>
</g>
<g>
</g>
<g>
</g>
<g>
</g>
</svg>
